<svg version="1.1" id="Layer_1" xmlns="http://www.w3.org/2000/svg" xmlns:xlink="http://www.w3.org/1999/xlink" x="0px" y="0px" width="200px" height="100px" viewBox="0 0 200 100" enable-background="new 0 0 200 100" xml:space="preserve">
<g>
	<path fill="#A7A7C0" d="M35.506,38.096c0-2.703,2.191-4.895,4.896-4.895c2.703,0,4.896,2.192,4.896,4.895   c0,2.704-2.192,4.896-4.896,4.896l0,0C37.697,42.992,35.506,40.8,35.506,38.096z"/>
	<path fill="#A7A7C0" d="M0.116,38.096c0-2.703,2.191-4.895,4.895-4.895c2.704,0,4.896,2.192,4.896,4.895   c0,2.704-2.191,4.896-4.896,4.896l0,0C2.307,42.992,0.116,40.8,0.116,38.096z"/>
	<path fill="#A7A7C0" d="M11.862,38.096c0-2.703,2.191-4.895,4.895-4.895c2.703,0,4.895,2.192,4.895,4.895   c0,2.704-2.192,4.896-4.895,4.896l0,0C14.053,42.992,11.862,40.8,11.862,38.096z"/>
	<path fill="#A7A7C0" d="M35.529,50c0-2.704,2.191-4.895,4.895-4.895c2.704,0,4.896,2.191,4.896,4.895   c0,2.705-2.191,4.896-4.896,4.896C37.722,54.894,35.531,52.704,35.529,50L35.529,50z"/>
	<path fill="#A7A7C0" d="M23.673,38.096c0-2.703,2.191-4.895,4.895-4.895c2.704,0,4.896,2.192,4.896,4.895   c0,2.704-2.192,4.896-4.896,4.896l0,0C25.864,42.992,23.673,40.8,23.673,38.096z"/>
	<path fill="#A7A7C0" d="M23.673,50c0-2.704,2.191-4.895,4.895-4.895c2.704,0,4.896,2.191,4.896,4.895   c0,2.705-2.192,4.896-4.896,4.896l0,0C25.865,54.894,23.675,52.704,23.673,50z"/>
	<path fill="#A7A7C0" d="M12.005,61.903c0-2.703,2.191-4.895,4.895-4.895c2.704,0,4.896,2.191,4.896,4.895   c0,2.704-2.192,4.895-4.896,4.895l0,0c-2.7,0.004-4.892-2.185-4.895-4.885C12.005,61.91,12.005,61.906,12.005,61.903z"/>
	<path fill="#A7A7C0" d="M23.673,61.903c0-2.703,2.191-4.895,4.895-4.895c2.704,0,4.896,2.191,4.896,4.895   c0,2.704-2.192,4.895-4.896,4.895l0,0C25.864,66.798,23.673,64.607,23.673,61.903z"/>
	<path fill="#A7A7C0" d="M67.688,46.273v-3.162h-4.803c-5.944,0-7.599-0.365-7.599,5.765v17.727h3.596V46.265L67.688,46.273z"/>
	<path fill="#A7A7C0" d="M73.485,42.997v3.416c8.681,0,10.229,0.402,10.229,4.896h-6.49c-4.97,0-7.835,0.924-7.835,7.721   c-0.02,1.124,0.114,2.247,0.397,3.337l0,0c0.966,3.467,3.698,4.118,7.253,4.118c2.523,0,5.463-0.097,6.614-2.903v2.991h3.697   V50.925C87.352,42.84,81.625,42.997,73.485,42.997z M82.23,62.366c-1.109,0.836-2.773,0.863-4.4,0.863   c-1.813,0-3.074-0.068-3.841-0.863l0,0c-0.625-0.651-0.924-1.789-0.924-3.768c0-3.749,1.386-4.04,4.757-4.018   c2.537,0,5.731,0,5.731,0v4.327c0,1.794-0.519,2.843-1.331,3.458l0,0H82.23z"/>
	<path fill="#A7A7C0" d="M107.272,34.473v8.523h-7.038c-7.779,0-8.523,4.881-8.523,11.807c0,2.99,0.138,5.574,0.924,7.548l0,0   c1.031,2.644,3.185,4.197,7.613,4.197c6.315,0,7.032-3.319,7.032-3.319v3.333h3.615V34.482L107.272,34.473z M105.343,62.366   c-0.859,0.576-2.079,0.795-3.809,0.795c-1.729,0-3.074-0.144-3.985-0.799l0,0C96.2,61.391,95.7,59.297,95.7,54.887   c0-7.466,1.101-8.321,5.843-8.321c3.236,0,5.747-0.033,5.743,0c0,1.326,0,6.204,0,8.321c0,4.224-0.371,6.434-1.92,7.476l0,0   L105.343,62.366z"/>
	<polygon fill="#A7A7C0" points="143.438,42.997 139.976,42.997 136.135,59.527 130.628,42.997 127.647,42.997 122.291,59.527    118.157,42.997 114.45,42.997 120.229,66.554 123.556,66.554 129.039,48.798 134.554,66.554 137.896,66.554  "/>
	<path fill="#A7A7C0" d="M148.526,42.997v3.416c8.683,0,10.235,0.402,10.235,4.896h-6.518c-4.965,0-7.831,0.924-7.831,7.721   c-0.021,1.117,0.106,2.234,0.385,3.317l0,0c0.966,3.467,3.697,4.118,7.257,4.118c2.523,0,5.463-0.096,6.61-2.902v2.991h3.698   V50.925C162.354,42.84,156.644,42.997,148.526,42.997z M157.25,62.366c-1.105,0.836-2.774,0.863-4.401,0.863   c-1.807,0-3.069-0.068-3.836-0.863l0,0c-0.624-0.651-0.925-1.789-0.925-3.768c0-3.749,1.387-4.04,4.761-4.018   c2.538,0,5.738,0,5.738,0v4.327c0,1.794-0.519,2.843-1.332,3.458l0,0H157.25z"/>
	<path fill="#A7A7C0" d="M178.629,46.273v-3.162h-4.809c-5.948,0-7.598-0.365-7.598,5.765v17.728h3.596v-20.34L178.629,46.273z"/>
	<path fill="#A7A7C0" d="M190.286,42.646c-9.513,0-12.587,12.73-8,19.701l0,0c1.783,2.719,4.724,4.563,8.901,4.447   c2.818-0.074,5.591-0.733,8.142-1.932c0,0,0-3.781,0-3.791c-0.909,0.54-1.877,0.974-2.886,1.295l0,0   c-2.703,0.892-6.438,1.455-9.124,0l0,0c-1.979-1.073-3.385-3.237-3.385-7.17h15.745C199.68,55.196,201.565,42.646,190.286,42.646z    M183.963,51.804c0.287-2.007,1.642-5.968,6.519-5.968s5.625,3.813,5.713,5.968H183.963z"/>
</g>
</svg>