<svg version="1.1" id="Layer_1" xmlns="http://www.w3.org/2000/svg" xmlns:xlink="http://www.w3.org/1999/xlink" x="0px" y="0px" width="200px" height="100px" viewBox="0 0 200 100" enable-background="new 0 0 200 100" xml:space="preserve">
<g>
	<g>
		<path fill="#A7A7C0" d="M35.775,56.971l6.297-0.545c0.396,1.885,1.141,3.271,2.281,4.164s2.727,1.34,4.66,1.34    c2.083,0,3.62-0.396,4.71-1.188c1.042-0.794,1.586-1.736,1.586-2.777c0-0.694-0.198-1.239-0.644-1.735    c-0.446-0.494-1.24-0.893-2.331-1.239c-0.743-0.248-2.479-0.646-5.156-1.239c-3.471-0.794-5.9-1.734-7.288-2.826    c-1.983-1.587-2.926-3.521-2.926-5.802c0-1.487,0.447-2.826,1.389-4.116c0.942-1.288,2.231-2.231,3.967-2.925    c1.735-0.645,3.818-0.992,6.296-0.992c4.017,0,7.042,0.794,9.074,2.38c2.033,1.587,3.074,3.669,3.173,6.346l-6.446,0.249    c-0.297-1.487-0.893-2.529-1.785-3.173c-0.892-0.645-2.281-0.992-4.066-0.992c-1.884,0-3.322,0.348-4.413,1.042    c-0.694,0.446-1.041,1.041-1.041,1.785c0,0.693,0.297,1.239,0.941,1.735c0.794,0.595,2.777,1.24,5.95,1.934    c3.124,0.645,5.455,1.338,6.941,2.083c1.488,0.694,2.678,1.686,3.521,2.926c0.843,1.238,1.289,2.775,1.289,4.562    c0,1.636-0.496,3.173-1.537,4.611s-2.479,2.526-4.313,3.222c-1.885,0.694-4.165,1.042-6.942,1.042    c-4.016,0-7.14-0.844-9.322-2.528C37.51,62.623,36.221,60.146,35.775,56.971z"/>
		<path fill="#A7A7C0" d="M63.987,42.642v-5.107h6.099v5.107H63.987z M63.987,66.291V45.467h6.099v20.824H63.987z"/>
		<path fill="#A7A7C0" d="M83.92,45.467v4.413h-4.166v8.379c0,1.687,0.05,2.679,0.099,2.976c0.099,0.298,0.249,0.496,0.546,0.693    c0.297,0.198,0.644,0.299,1.041,0.299c0.546,0,1.389-0.199,2.479-0.547l0.545,4.266c-1.438,0.545-3.024,0.844-4.859,0.844    c-1.09,0-2.083-0.148-2.975-0.498c-0.893-0.346-1.537-0.742-1.934-1.288s-0.694-1.239-0.842-2.132    c-0.149-0.645-0.198-1.934-0.198-3.867V49.88H70.83v-4.413h2.827v-4.115l6.147-3.223v7.338H83.92z"/>
		<path fill="#A7A7C0" d="M98.398,59.697l6.099,0.943c-0.793,2.031-2.033,3.568-3.72,4.61c-1.686,1.039-3.817,1.586-6.346,1.586    c-4.016,0-6.991-1.188-8.925-3.569c-1.538-1.886-2.281-4.265-2.281-7.19c0-3.47,0.992-6.148,3.024-8.13    c1.984-1.934,4.562-2.926,7.587-2.926c3.421,0,6.148,1.042,8.131,3.074c1.983,2.033,2.926,5.157,2.876,9.42h-15.32    c0.049,1.637,0.545,2.926,1.487,3.817c0.943,0.894,2.133,1.339,3.521,1.339c0.942,0,1.785-0.248,2.43-0.693    C97.604,61.482,98.101,60.74,98.398,59.697z M98.795,54.096c-0.049-1.587-0.496-2.828-1.389-3.621    c-0.892-0.843-1.934-1.239-3.173-1.239c-1.339,0-2.43,0.446-3.323,1.29c-0.892,0.894-1.289,2.082-1.289,3.57H98.795z"/>
		<path fill="#A7A7C0" d="M106.926,66.291V37.782h6.445v23.651h16.018v4.857H106.926z"/>
		<path fill="#A7A7C0" d="M129.438,55.582c0-1.834,0.496-3.619,1.486-5.305c0.991-1.736,2.432-3.024,4.266-3.917    s3.867-1.339,6.147-1.339c3.521,0,6.347,1.042,8.627,3.074c2.231,2.033,3.373,4.611,3.373,7.736c0,3.173-1.142,5.751-3.373,7.833    c-2.28,2.083-5.106,3.125-8.526,3.125c-2.133,0-4.166-0.447-6.049-1.291c-1.936-0.841-3.373-2.131-4.414-3.816    C129.934,59.995,129.438,57.963,129.438,55.582z M135.732,55.879c0,2.084,0.547,3.67,1.639,4.762    c1.09,1.09,2.43,1.637,4.018,1.637c1.584,0,2.924-0.547,4.016-1.637c1.091-1.092,1.636-2.678,1.636-4.81    c0-2.033-0.545-3.62-1.636-4.71c-1.092-1.092-2.432-1.637-4.016-1.637c-1.588,0-2.928,0.545-4.018,1.637    C136.229,52.26,135.732,53.848,135.732,55.879z"/>
		<path fill="#A7A7C0" d="M175.152,51.616l-6.049,0.991c-0.197-1.09-0.646-1.885-1.39-2.431c-0.694-0.546-1.636-0.843-2.776-0.843    c-1.537,0-2.728,0.496-3.67,1.438c-0.892,0.943-1.338,2.53-1.338,4.762c0,2.479,0.446,4.215,1.389,5.255    c0.942,1.042,2.182,1.537,3.719,1.537c1.143,0,2.134-0.298,2.876-0.892c0.744-0.596,1.239-1.638,1.587-3.074l6,0.94    c-0.646,2.479-1.835,4.363-3.619,5.654c-1.785,1.288-4.166,1.883-7.141,1.883c-3.372,0-6.1-0.942-8.082-2.877    c-2.033-1.933-3.023-4.562-3.023-7.981c0-3.422,0.99-6.099,3.023-8.033c2.031-1.934,4.76-2.876,8.181-2.876    c2.827,0,5.058,0.545,6.744,1.636C173.219,47.749,174.458,49.385,175.152,51.616z"/>
		<path fill="#A7A7C0" d="M176.441,66.292V37.534h6.099v15.271l7.19-7.338h7.535l-7.933,7.585l8.478,13.239h-6.594l-5.801-9.371    l-2.877,2.678v6.646h-6.1v0.049H176.441z"/>
	</g>
	<g>
		<path fill="#A7A7C0" d="M28.387,38.328c-1.141-5.455-5.95-9.52-11.703-9.52c-5.751,0-10.561,4.115-11.701,9.52H1.066v29.75H32.7    v-29.75H28.387z M16.685,33.766c2.976,0,5.504,1.884,6.545,4.512H10.189C11.182,35.601,13.71,33.766,16.685,33.766z M27.593,62.92    H6.174V43.484h21.419V62.92z"/>
		<polygon fill="#A7A7C0" points="25.66,41.848 16.536,54.293 11.727,49.781 8.355,53.996 16.933,61.037 29.676,44.575   "/>
	</g>
</g>
</svg>