<svg version="1.1" id="Layer_1" xmlns="http://www.w3.org/2000/svg" xmlns:xlink="http://www.w3.org/1999/xlink" x="0px" y="0px" width="200px" height="100px" viewBox="0 0 200 100" enable-background="new 0 0 200 100" xml:space="preserve">
<g>
	<g>
		<path fill="#A7A7C0" d="M44.217,31.56h-0.002h-0.002h-1.228c-8.772,0.093-13.354,3.74-14.323,10.722l-0.58,4.529    c-0.37,3.119,0.188,5.458,1.697,7.156c1.867,2.092,5.131,3.606,10.094,3.658h1.23c8.583-0.088,13.157-3.629,14.238-10.123h0.013    l0.061-0.466l0.577-4.521c0.383-3.244-0.183-5.66-1.735-7.402C52.385,33.01,49.132,31.609,44.217,31.56 M48.252,46.613    c-0.241,1.843-0.743,3.248-1.527,4.293c-1.093,1.385-2.755,2.249-5.068,2.249h-1.291h-0.06c-2.301,0-3.961-0.796-4.664-2.108    c-0.477-0.984-0.603-2.377-0.356-4.231l0.539-4.125c0.292-2.217,0.999-3.844,2.159-4.97c1.123-1.101,2.735-1.627,4.676-1.627    h0.032h1.225l0,0c1.336,0,3.097,0.22,4.083,1.526c0.823,1.083,1.079,2.677,0.797,4.866L48.252,46.613z"/>
		<path fill="#A7A7C0" d="M114.884,31.56h-0.004h-0.004h-1.228c-8.778,0.093-13.357,3.74-14.324,10.722l-0.58,4.529    c-0.369,3.119,0.188,5.458,1.697,7.156c1.868,2.092,5.131,3.606,10.092,3.658h1.234c8.58-0.088,13.152-3.629,14.232-10.123h0.016    l0.061-0.466l0.574-4.521c0.383-3.244-0.186-5.66-1.732-7.402C123.046,33.01,119.796,31.609,114.884,31.56 M118.919,46.613    c-0.244,1.843-0.75,3.248-1.533,4.293c-1.092,1.385-2.756,2.249-5.065,2.249h-1.286h-0.06c-2.308,0-3.963-0.796-4.673-2.108    c-0.475-0.984-0.596-2.377-0.354-4.231l0.543-4.125c0.288-2.217,0.995-3.844,2.153-4.97c1.125-1.101,2.735-1.627,4.683-1.627    h0.026h1.226l0,0c1.334,0,3.103,0.22,4.086,1.526c0.817,1.083,1.076,2.677,0.795,4.866L118.919,46.613z"/>
		<path fill="#A7A7C0" d="M190.486,35.112c-1.87-2.102-5.125-3.503-10.038-3.553h-0.003h-0.002h-1.229    c-8.772,0.093-13.354,3.74-14.319,10.722l-0.578,4.529c-0.373,3.119,0.185,5.458,1.695,7.156    c1.866,2.092,5.125,3.606,10.096,3.658h1.228c8.58-0.088,13.158-3.629,14.238-10.123h0.01l0.063-0.466l0.576-4.521    C192.604,39.271,192.038,36.855,190.486,35.112 M184.484,46.613c-0.243,1.843-0.745,3.248-1.532,4.293    c-1.093,1.385-2.754,2.249-5.066,2.249h-1.284h-0.062c-2.304,0-3.961-0.796-4.668-2.108c-0.479-0.984-0.601-2.377-0.363-4.231    l0.548-4.125c0.291-2.217,0.995-3.844,2.153-4.97c1.125-1.101,2.74-1.627,4.685-1.627h0.024h1.229c1.332,0,3.096,0.22,4.084,1.526    c0.816,1.083,1.078,2.677,0.795,4.866L184.484,46.613z"/>
		<path fill="#A7A7C0" d="M137.007,39.247c0.254,0,0.482,0.023,0.695,0.062c0.836,0.152,1.371,0.561,1.692,0.917    c0.61,0.68,0.897,1.661,0.78,2.692l-0.922,7.579v0.008l-0.244,1.946l-0.016,0.13h0.043l-0.009,0.006l4.191,0.002    c0.262,0,0.622-0.021,1.055-0.067c1.881-0.2,4.974-0.972,5.86-3.413c0.025-0.067,0.046-0.134,0.072-0.203    c0.194-0.658,0.356-1.349,0.444-2.086l0.356-2.647l-0.002-0.004h0.002l0.173-1.238c0.133-1.002,0.157-1.95,0.06-2.809    c-0.294-2.442-3.195-3.214-5.027-3.418c-0.414-0.047-0.774-0.063-1.037-0.063l-4.184,0.001v0.004h-2.964h-0.317l-0.008-0.015    c-0.99-0.069-1.642-0.234-2.015-0.508c-0.89-0.648-1.347-1.704-1.386-3.233l-0.022-0.766h0.47h0.342l9.144,0.001    c0.048,0,0.086,0.001,0.134,0.001l1.073,0.002c5.55,0.048,9.228,1.17,11.246,3.429c1.517,1.706,2.078,4.002,1.72,7.023    l-0.207,1.597l-0.291,2.475c-0.043,0.329-0.097,0.919-0.156,1.231c-0.26,1.6-0.724,2.983-1.377,4.117    c-0.737,1.271-1.709,2.28-2.961,3.084c-0.397,0.254-0.842,0.479-1.306,0.688c-0.971,0.446-2.073,0.804-3.307,1.049    c-0.373,0.071-0.982,0.138-1.729,0.195c-0.865,0.065-1.916,0.101-2.99,0.118l-7.561,0.002l0,0h-1.016    c-1.871-0.051-2.975-0.373-3.574-1.051c-0.109-0.127-0.205-0.267-0.275-0.416c-0.199-0.396-0.273-0.875-0.207-1.455l0.92-6.999    l0.979-7.972h3.655v0.004H137.007z"/>
		<path fill="#A7A7C0" d="M23.636,52.582h-0.814h-6.753h-2.432l-0.002,0.012c-1.358-0.012-2.436-0.123-3.274-0.358    c-0.842-0.231-1.479-0.603-1.893-1.103c-0.316-0.373-0.532-0.832-0.649-1.37c-0.008-0.05-0.018-0.104-0.024-0.155    c-0.043-0.236-0.079-0.478-0.094-0.745c-0.04-0.636-0.019-1.353,0.09-2.173l0.501-3.821c0.058-0.45,0.145-0.863,0.241-1.263    c0.028-0.109,0.065-0.242,0.111-0.414c0.006-0.026,0.013-0.055,0.022-0.081c0.09-0.319,0.19-0.629,0.312-0.915    c0.028-0.072,0.056-0.143,0.088-0.211c0.109-0.243,0.241-0.458,0.37-0.676c0.124-0.192,0.259-0.376,0.408-0.548    c0.556-0.656,1.347-1.169,2.357-1.533c0.998-0.356,2.279-0.532,3.913-0.534h5.532l0.014-0.018    c1.011-0.069,1.707-0.234,2.151-0.512c0.531-0.327,0.974-0.761,1.339-1.308c0.059-0.083,0.1-0.188,0.153-0.276    c0.28-0.481,0.52-1.024,0.696-1.664l0.227-0.784h-9.83h-0.153h-0.5l-0.686,0.001c-1.238,0.013-2.381,0.108-3.449,0.268    c-6.22,0.93-9.568,4.325-10.363,10.072l-0.56,4.369c-0.356,3.009,0.181,5.263,1.637,6.899c1.688,1.895,4.578,3.219,8.873,3.428    l7.558-0.017c1.017-0.067,2.018-0.118,2.46-0.396c0.664-0.405,1.181-0.992,1.585-1.74c0.098-0.182,0.192-0.364,0.278-0.567    C23.076,54.448,23.461,53.555,23.636,52.582z"/>
		<path fill="#A7A7C0" d="M68.552,53.155l-0.037,0.312c-0.136,1.035-0.662,2.013-1.445,2.691c-0.512,0.448-1.386,0.982-2.63,0.982    h-3.73l0.344-2.852l0.139-1.134l2.568-21.042h0.595h2.458c1.948,0,3.263,0.507,3.909,1.506l6.773,10.82l9.634-10.926    c0.837-0.931,2.218-1.399,4.106-1.399h2.473h0.711l-2.614,21.042l-0.037,0.307c-0.137,1.035-0.662,2.012-1.444,2.693    c-0.514,0.445-1.387,0.979-2.63,0.979L84.1,57.129l1.809-14.595l-7.577,9.56c-0.224,0.26-0.927,1.039-1.776,1.047h-0.057h-0.003    c-0.801-0.008-1.406-0.805-1.628-1.161L69.87,42.49l-1.314,10.665"/>
	</g>
	<g>
		<g>
			<path fill="#A7A7C0" d="M11.734,79.088c-0.032,1.146-0.524,2.074-1.473,2.783c-0.952,0.703-2.176,1.062-3.683,1.062     c-1.883,0-3.357-0.618-4.429-1.851c-1.074-1.235-1.607-2.936-1.607-5.104c0-2.203,0.533-3.938,1.607-5.192     c1.072-1.258,2.545-1.884,4.429-1.884c1.575,0,2.828,0.343,3.76,1.04c0.93,0.698,1.396,1.632,1.396,2.805H9.841     c0-0.684-0.283-1.234-0.85-1.656c-0.563-0.422-1.302-0.631-2.221-0.631c-1.381,0-2.447,0.463-3.202,1.391     c-0.754,0.923-1.132,2.23-1.132,3.915c0,1.794,0.371,3.18,1.113,4.163c0.746,0.984,1.788,1.476,3.133,1.476     c0.895,0,1.62-0.204,2.183-0.612c0.562-0.408,0.884-0.979,0.977-1.699h1.892V79.088z"/>
			<path fill="#A7A7C0" d="M13.94,73.26h0.861h0.874v0.957c0.675-0.819,1.552-1.23,2.63-1.226l0.467,0.021v1.616l-0.354-0.021     c-0.96,0-1.662,0.261-2.095,0.779c-0.435,0.52-0.648,1.354-0.648,2.493v4.779h-0.86H13.94V73.26z"/>
			<path fill="#A7A7C0" d="M25.112,82.933c-1.387,0-2.47-0.429-3.254-1.28c-0.782-0.857-1.176-2.035-1.176-3.543     c0-1.592,0.394-2.845,1.182-3.753c0.787-0.911,1.873-1.362,3.248-1.362c1.333,0,2.351,0.395,3.049,1.184     c0.703,0.783,1.053,1.934,1.053,3.437l-0.017,0.634h-6.709c0.047,1.069,0.249,1.885,0.614,2.438     c0.415,0.633,1.071,0.947,1.96,0.947c0.633,0,1.151-0.178,1.554-0.525c0.405-0.354,0.648-0.836,0.726-1.452h1.786     c-0.132,1.063-0.541,1.878-1.227,2.438C27.212,82.65,26.283,82.933,25.112,82.933z M27.434,76.953     c-0.057-0.859-0.235-1.492-0.535-1.896c-0.375-0.509-1.017-0.767-1.931-0.767c-0.791,0-1.407,0.297-1.846,0.894     c-0.332,0.444-0.537,1.036-0.612,1.769H27.434z"/>
			<path fill="#A7A7C0" d="M34.505,82.933c-1.073,0-1.919-0.261-2.527-0.779c-0.61-0.521-0.914-1.239-0.914-2.155     c0-0.998,0.417-1.772,1.253-2.343c0.835-0.563,1.988-0.843,3.453-0.843h1.569l-0.002-0.795c0-0.598-0.171-1.04-0.518-1.309     c-0.343-0.279-0.897-0.418-1.664-0.418c-0.524,0-0.943,0.125-1.261,0.381c-0.318,0.252-0.497,0.601-0.537,1.047h-1.815     c0.069-0.943,0.408-1.633,1.013-2.069c0.603-0.437,1.522-0.655,2.743-0.655c1.133,0,2.041,0.276,2.733,0.832     c0.691,0.555,1.039,1.287,1.039,2.191v3.271c0,0.889,0.021,1.637,0.069,2.236c0.041,0.598,0.105,0.979,0.187,1.137h-1.645     c-0.068-0.08-0.123-0.291-0.161-0.633c-0.032-0.221-0.057-0.488-0.07-0.8c-0.113,0.202-0.241,0.396-0.392,0.58     C36.442,82.56,35.591,82.933,34.505,82.933z M37.341,78.09h-1.59c-0.979,0-1.714,0.158-2.204,0.479     c-0.488,0.319-0.733,0.801-0.733,1.438c0,0.519,0.175,0.916,0.518,1.201c0.343,0.282,0.831,0.426,1.464,0.426     c0.846,0,1.482-0.239,1.902-0.719c0.424-0.479,0.635-1.183,0.641-2.115L37.341,78.09z"/>
			<path fill="#A7A7C0" d="M46.641,82.799c-0.494,0.088-1.062,0.134-1.704,0.134c-0.652,0-1.204-0.177-1.654-0.534     c-0.454-0.359-0.681-0.796-0.681-1.313v-6.573h-1.949V73.26h1.949v-1.693l1.73-0.716v2.409h2.309v1.253h-2.309v6.171     c0,0.334,0.086,0.572,0.253,0.724c0.161,0.151,0.427,0.226,0.793,0.226c0.458-0.008,0.88-0.049,1.263-0.123V82.799z"/>
			<path fill="#A7A7C0" d="M48.789,69.168h1.901v1.771h-1.901V69.168z M48.872,73.26h0.859h0.874v9.402h-0.86h-0.872L48.872,73.26     L48.872,73.26z"/>
			<path fill="#A7A7C0" d="M53.934,73.26h0.805h0.804v1.301c0.091-0.131,0.187-0.255,0.296-0.373     c0.714-0.793,1.68-1.193,2.888-1.193c1.238,0,2.146,0.328,2.728,0.985c0.581,0.655,0.871,1.681,0.871,3.08v5.604h-0.863h-0.867     v-5.576c0-0.963-0.184-1.66-0.547-2.094c-0.36-0.437-0.944-0.65-1.741-0.65c-0.923,0-1.596,0.236-2.014,0.712     c-0.418,0.475-0.625,1.239-0.625,2.29v5.318h-0.863h-0.871L53.934,73.26L53.934,73.26z"/>
			<path fill="#A7A7C0" d="M69.169,85.143c0.94,0,1.61-0.23,2.004-0.688c0.39-0.461,0.587-1.244,0.587-2.349v-1.252l-0.288,0.399     c-0.7,0.851-1.621,1.275-2.764,1.275c-1.222,0-2.185-0.429-2.882-1.283c-0.701-0.855-1.047-2.035-1.047-3.541     c0-1.377,0.386-2.509,1.161-3.393c0.774-0.881,1.767-1.323,2.98-1.323c1.146,0,2.047,0.425,2.697,1.273l0.143,0.179v-1.186h1.733     v8.849c0,1.507-0.35,2.606-1.049,3.296c-0.697,0.693-1.803,1.04-3.315,1.04c-1.321,0-2.287-0.245-2.904-0.737     c-0.616-0.49-0.922-1.262-0.922-2.314h1.81c0,0.605,0.164,1.052,0.494,1.332C67.942,85.004,68.46,85.143,69.169,85.143z      M69.188,74.274c-0.82,0-1.449,0.301-1.897,0.908c-0.451,0.6-0.675,1.45-0.675,2.545c0,1.188,0.211,2.069,0.633,2.651     c0.426,0.582,1.07,0.869,1.939,0.869c0.815,0,1.448-0.31,1.898-0.914c0.451-0.608,0.674-1.468,0.674-2.578     c0-1.107-0.223-1.967-0.674-2.571C70.636,74.58,70.003,74.274,69.188,74.274z"/>
			<path fill="#A7A7C0" d="M86.462,70.698h-4.525V69.93v-0.764h10.896v0.764v0.769h-4.525v11.966h-0.919h-0.926L86.462,70.698     L86.462,70.698z"/>
			<path fill="#A7A7C0" d="M94.971,73.26h0.861h0.871v0.957c0.677-0.82,1.551-1.23,2.631-1.226l0.47,0.021v1.616l-0.353-0.021     c-0.965,0-1.665,0.261-2.095,0.779c-0.435,0.52-0.653,1.354-0.653,2.493v4.779h-0.86h-0.872V73.26z"/>
			<path fill="#A7A7C0" d="M103.796,78.889c0,0.961,0.185,1.658,0.547,2.095c0.365,0.431,0.945,0.649,1.742,0.649     c0.967,0,1.664-0.241,2.078-0.729c0.414-0.482,0.604-1.259,0.553-2.322V73.26h0.859h0.868v9.402h-0.805h-0.8v-1.224l-0.192,0.247     c-0.728,0.83-1.688,1.245-2.89,1.245c-1.271,0-2.2-0.337-2.799-1.011c-0.599-0.672-0.896-1.725-0.896-3.157v-5.505h0.86h0.869     v5.63L103.796,78.889L103.796,78.889z"/>
			<path fill="#A7A7C0" d="M118.827,75.795c0-0.463-0.166-0.836-0.502-1.099c-0.332-0.271-0.8-0.405-1.394-0.405     c-0.604,0-1.082,0.115-1.425,0.338c-0.336,0.223-0.504,0.537-0.504,0.938c0,0.295,0.09,0.535,0.276,0.729     c0.179,0.189,0.46,0.338,0.839,0.439l1.918,0.518c0.975,0.269,1.678,0.608,2.103,1.022c0.422,0.407,0.631,0.949,0.631,1.625     c0,0.946-0.347,1.687-1.035,2.226c-0.69,0.539-1.646,0.81-2.862,0.81c-1.274,0-2.248-0.265-2.916-0.79     c-0.664-0.523-1-1.292-1-2.301h1.791c0,0.563,0.188,0.998,0.563,1.313c0.373,0.317,0.896,0.476,1.562,0.476     c0.688,0,1.229-0.139,1.612-0.411c0.384-0.275,0.572-0.662,0.572-1.166c0-0.296-0.117-0.543-0.356-0.749     c-0.236-0.2-0.599-0.373-1.091-0.508l-1.912-0.516c-0.862-0.232-1.491-0.552-1.87-0.949c-0.377-0.395-0.563-0.927-0.563-1.607     c0-0.85,0.321-1.521,0.975-2.004c0.65-0.481,1.55-0.729,2.695-0.729c1.146,0,2.049,0.252,2.707,0.744     c0.651,0.499,0.979,1.184,0.979,2.057H118.827L118.827,75.795z"/>
			<path fill="#A7A7C0" d="M128.695,82.799c-0.493,0.088-1.062,0.134-1.702,0.134c-0.65,0-1.203-0.177-1.656-0.534     c-0.455-0.359-0.678-0.796-0.678-1.313v-6.573h-1.951V73.26h1.951v-1.693l1.729-0.716v2.409h2.307v1.253h-2.307v6.171     c0,0.334,0.079,0.572,0.25,0.724c0.161,0.151,0.428,0.226,0.793,0.226c0.459-0.008,0.879-0.049,1.264-0.123V82.799z"/>
			<path fill="#A7A7C0" d="M138.516,81.045c-1.078-1.264-1.613-2.994-1.613-5.211c0-2.162,0.535-3.858,1.613-5.09     c1.073-1.229,2.553-1.845,4.433-1.845c1.896,0,3.379,0.613,4.448,1.845c1.071,1.229,1.604,2.928,1.604,5.09     c0,2.217-0.533,3.947-1.604,5.211c-1.069,1.258-2.554,1.888-4.448,1.888C141.066,82.933,139.589,82.303,138.516,81.045z      M146.059,79.953c0.731-0.968,1.101-2.332,1.101-4.101c0-1.722-0.367-3.056-1.101-4.003c-0.738-0.947-1.771-1.422-3.11-1.422     c-1.334,0-2.365,0.475-3.101,1.422c-0.731,0.947-1.101,2.281-1.101,4.003c0,1.769,0.366,3.133,1.101,4.101     c0.733,0.969,1.767,1.448,3.101,1.448C144.288,81.401,145.318,80.92,146.059,79.953z"/>
			<path fill="#A7A7C0" d="M151.378,73.26h0.802h0.803v1.301c0.091-0.131,0.188-0.255,0.297-0.373     c0.718-0.793,1.679-1.193,2.89-1.193c1.235,0,2.146,0.328,2.728,0.985c0.582,0.655,0.869,1.681,0.869,3.08v5.604h-0.858h-0.869     v-5.576c0-0.963-0.185-1.66-0.545-2.094c-0.365-0.437-0.945-0.65-1.742-0.65c-0.922,0-1.599,0.236-2.015,0.712     c-0.418,0.475-0.625,1.239-0.625,2.29v5.318h-0.862h-0.867V73.26H151.378z"/>
			<path fill="#A7A7C0" d="M162.689,69.168h0.856h0.871v13.496h-0.86h-0.867V69.168z"/>
			<path fill="#A7A7C0" d="M167.768,69.168h1.903v1.771h-1.903V69.168z M167.852,73.26h0.86h0.873v9.402h-0.858h-0.875V73.26z"/>
			<path fill="#A7A7C0" d="M172.913,73.26h0.803h0.81v1.301c0.086-0.131,0.188-0.255,0.298-0.373     c0.711-0.793,1.676-1.193,2.887-1.193c1.238,0,2.146,0.328,2.728,0.985c0.58,0.655,0.869,1.681,0.869,3.08v5.604h-0.859h-0.868     v-5.576c0-0.963-0.187-1.66-0.548-2.094c-0.362-0.437-0.942-0.65-1.739-0.65c-0.926,0-1.597,0.236-2.017,0.712     c-0.416,0.475-0.625,1.239-0.625,2.29v5.318h-0.864h-0.869V73.26H172.913z"/>
			<path fill="#A7A7C0" d="M188.195,82.933c-1.383,0-2.469-0.429-3.252-1.28c-0.782-0.857-1.174-2.035-1.174-3.543     c0-1.592,0.392-2.845,1.181-3.753c0.786-0.911,1.866-1.362,3.245-1.362c1.33,0,2.353,0.395,3.052,1.184     c0.703,0.783,1.053,1.934,1.053,3.437l-0.021,0.634h-6.702c0.041,1.069,0.248,1.885,0.61,2.438     c0.412,0.633,1.067,0.947,1.961,0.947c0.631,0,1.146-0.178,1.554-0.525c0.405-0.354,0.646-0.836,0.725-1.452h1.787     c-0.133,1.063-0.541,1.878-1.229,2.438C190.3,82.65,189.368,82.933,188.195,82.933z M190.521,76.953     c-0.06-0.859-0.235-1.492-0.537-1.896c-0.375-0.509-1.021-0.767-1.935-0.767c-0.791,0-1.405,0.297-1.842,0.894     c-0.336,0.444-0.539,1.036-0.615,1.769H190.521z"/>
			<path fill="#A7A7C0" d="M196.807,70.691c1.495,0,2.651,1.16,2.651,2.607c0,1.479-1.156,2.621-2.67,2.621     c-1.488,0-2.685-1.144-2.685-2.621c0-1.447,1.194-2.607,2.685-2.607H196.807z M196.773,71.215c-1.146,0-2.002,0.938-2.002,2.084     c0,1.16,0.856,2.082,2.033,2.082c1.144,0.016,1.989-0.922,1.989-2.082c0-1.146-0.849-2.084-2.008-2.084H196.773z M196.378,74.651     h-0.604v-2.593c0.24-0.049,0.574-0.096,1.002-0.096c0.49,0,0.718,0.078,0.904,0.209c0.146,0.107,0.256,0.314,0.256,0.554     c0,0.302-0.222,0.524-0.541,0.622v0.029c0.258,0.08,0.397,0.287,0.479,0.637c0.076,0.396,0.125,0.558,0.188,0.638h-0.647     c-0.078-0.099-0.131-0.319-0.211-0.621c-0.049-0.286-0.205-0.415-0.539-0.415h-0.285L196.378,74.651L196.378,74.651z      M196.395,73.186h0.287c0.334,0,0.603-0.11,0.603-0.38c0-0.238-0.177-0.396-0.554-0.396c-0.164,0-0.272,0.015-0.336,0.029V73.186     L196.395,73.186z"/>
		</g>
	</g>
</g>
</svg>