<svg version="1.1" id="Layer_1" xmlns="http://www.w3.org/2000/svg" xmlns:xlink="http://www.w3.org/1999/xlink" x="0px" y="0px" width="72px" height="72px" viewBox="0 0 72 72" enable-background="new 0 0 72 72" xml:space="preserve">
<g id="_x23_ffffffff" display="none">
	<path display="inline" fill="#FFFFFF" d="M32.87,19.03c0.56-2.16,1.1-4.33,1.66-6.5c1.31,0.33,2.621,0.67,3.93,1.01   c-0.53,2.12-1.06,4.25-1.59,6.37c0.819,0.15,2.46,0.44,3.28,0.59c0.439-2.07,0.939-4.12,1.449-6.16c0.99,0.22,2.95,0.66,3.93,0.89   c-0.489,2.16-1.02,4.32-1.549,6.47c2.699,1.21,5.81,2.35,7.289,5.12c1.86,3.68-0.09,8.67-4.109,9.89   c6.22,2.99,4.38,12.649-1.48,14.83c-2.949,1.09-6.14,0.47-9.17,0.149c-0.55,2.15-1.09,4.311-1.64,6.461   c-1.31-0.32-2.62-0.65-3.93-0.98c0.54-2.16,1.08-4.33,1.59-6.5c-1.05-0.24-2.1-0.49-3.16-0.74c-0.53,2.15-1.05,4.301-1.56,6.461   c-1.34-0.361-2.68-0.701-4.01-1.07c0.59-2.15,1.13-4.32,1.66-6.49c-2.66-0.67-5.31-1.35-7.96-2.01c0.65-1.48,1.32-2.95,1.98-4.43   c1.47,0.289,2.94,0.479,4.43,0.59c1.53-6.36,3.33-12.65,4.66-19.05c-0.23-2.26-3.07-2.01-4.68-2.74c0.35-1.38,0.69-2.75,1.04-4.13   C27.58,17.73,30.22,18.38,32.87,19.03 M33.79,32.31c3.28,1.22,9.739,2.75,10.431-2.25c-0.23-4.13-5.32-4.65-8.411-5.54   C35.19,27.13,34.54,29.74,33.79,32.31 M30.69,45.17c3.36,0.71,6.98,2.051,10.339,0.689c2.141-1,2.631-4.239,0.881-5.819   c-2.43-2.33-5.94-2.78-9.05-3.63C32.13,39.33,31.4,42.24,30.69,45.17z"/>
</g>
<g id="Layer_2">
	<rect x="15" y="10.125" fill="#FFFFFF" stroke="#000000" stroke-miterlimit="10" width="40.625" height="50.25"/>
</g>
<g id="_x23_f7931aff">
	<path fill="#F7931A" d="M33.6,0h5.03c8.511,0.81,16.79,4.42,22.81,10.55c6.19,6.08,9.84,14.46,10.561,23.08v5.03   c-0.811,8.51-4.42,16.79-10.55,22.811c-5.91,6.02-14,9.59-22.341,10.529H33.19c-9.63-0.891-18.88-5.57-24.99-13.12   C3.5,53.3,0.87,46.23,0,39.029V33.81C0.85,16.2,16.01,0.97,33.6,0 M32.87,19.03c-2.65-0.65-5.29-1.3-7.94-1.97   c-0.35,1.38-0.69,2.75-1.04,4.13c1.61,0.73,4.45,0.48,4.68,2.74c-1.33,6.4-3.13,12.69-4.66,19.05c-1.49-0.11-2.96-0.301-4.43-0.59   c-0.66,1.479-1.33,2.949-1.98,4.43c2.65,0.66,5.3,1.34,7.96,2.01c-0.53,2.17-1.07,4.34-1.66,6.49c1.33,0.369,2.67,0.709,4.01,1.07   c0.51-2.16,1.03-4.311,1.56-6.461c1.06,0.25,2.11,0.5,3.16,0.74c-0.51,2.17-1.05,4.34-1.59,6.5c1.31,0.33,2.62,0.66,3.93,0.98   c0.55-2.15,1.09-4.311,1.64-6.461c3.03,0.32,6.221,0.94,9.17-0.149c5.86-2.181,7.7-11.84,1.48-14.83   c4.02-1.22,5.97-6.21,4.109-9.89c-1.479-2.77-4.59-3.91-7.289-5.12c0.529-2.15,1.06-4.31,1.549-6.47   C44.55,15,42.59,14.56,41.6,14.34c-0.51,2.04-1.01,4.09-1.449,6.16c-0.82-0.15-2.461-0.44-3.28-0.59c0.53-2.12,1.06-4.25,1.59-6.37   c-1.31-0.34-2.62-0.68-3.93-1.01C33.97,14.7,33.43,16.87,32.87,19.03z"/>
	<path fill="#F7931A" d="M33.79,32.31c0.75-2.57,1.4-5.18,2.02-7.79c3.09,0.89,8.18,1.41,8.411,5.54   C43.529,35.06,37.07,33.53,33.79,32.31z"/>
	<path fill="#F7931A" d="M30.69,45.17c0.71-2.93,1.44-5.84,2.17-8.76c3.11,0.85,6.621,1.3,9.05,3.63   c1.75,1.58,1.26,4.819-0.881,5.819C37.67,47.221,34.05,45.88,30.69,45.17z"/>
</g>
</svg>