<svg version="1.1" id="Layer_2" xmlns="http://www.w3.org/2000/svg" xmlns:xlink="http://www.w3.org/1999/xlink" x="0px" y="0px" width="72px" height="72px" viewBox="0 0 72 72" enable-background="new 0 0 72 72" xml:space="preserve">
<path fill="#CDCDCD" d="M72,36c0,19.882-16.117,36-35.999,36C16.118,72,0,55.882,0,36S16.118,0,36.001,0C55.883,0,72,16.118,72,36"/>
<path fill="#CDCDCD" stroke="#FFFFFF" stroke-width="6" stroke-miterlimit="10" d="M66,36c0,16.569-13.432,30-30,30  C19.431,66,6,52.569,6,36C6,19.43,19.431,6,36,6C52.568,6,66,19.43,66,36"/>
<path fill="#FFFFFF" d="M34.174,44.553l2.029-7.644l4.804-1.753l1.195-4.491l-0.041-0.112l-4.729,1.729l3.408-12.831h-9.665  l-4.456,16.743L23,37.554l-1.23,4.631l3.719-1.358l-2.627,9.867H48.58l1.65-6.141H34.174"/>
</svg>