<svg version="1.1" id="Layer_1" xmlns="http://www.w3.org/2000/svg" xmlns:xlink="http://www.w3.org/1999/xlink" x="0px" y="0px" width="200px" height="100px" viewBox="0 0 200 100" enable-background="new 0 0 200 100" xml:space="preserve">
<g>
	<path fill="#A7A7C0" d="M18.894,41.638c3.452-2.357,7.126-3.274,10.173-2.826v-5.483H3.041v26.272h8.899   c-0.106-0.186-0.204-0.373-0.295-0.563C9.181,53.839,12.424,46.049,18.894,41.638L18.894,41.638z"/>
	<path fill="#A7A7C0" d="M28.924,41.811c-6.865,0-12.429,5.566-12.429,12.431c0,0.779,0.073,1.543,0.21,2.283   c0.311,1.344,1.024,1.762,1.687,2.045c0.326,0.138,0.609,0.191,0.769,0.213c1.314,0.099,2.689-0.225,3.986-1.031   c1.76-1.094,3.064-2.876,3.766-4.906c-2.12,0.244-4.229,0.566-6.324,0.969l0.039-3.896l13.96-0.932l-0.096,13.166l-4.218,0.285   c0-0.008,0.004-0.014,0.004-0.021l0.063-0.412c0.265-1.778,0.459-3.567,0.585-5.362c-0.543,0.711-1.151,1.369-1.816,1.969   c-1.026,0.923-2.174,1.701-3.41,2.313c-0.926,0.459-1.896,0.822-2.896,1.081c-0.796,0.204-2.196,0.301-3.297,0.342   c2.358,2.748,5.799,4.326,9.42,4.322c6.865,0,12.428-5.563,12.428-12.427C41.352,47.377,35.788,41.811,28.924,41.811L28.924,41.811   z"/>
	<path fill="#A7A7C0" d="M68.652,40.465c-0.63-3.006-3.252-3.809-5.943-3.809c-6.185,0-8.422,5.418-8.281,10.136   c0.279,6.466,2.235,9.994,9.47,10.133c1.713,0,3.424-0.278,5.033-0.801v-7.132h-5.733v-3.004h9.227v12.478   c-2.901,0.874-5.802,1.468-8.667,1.468c-3.565,0-6.465-0.455-9.227-2.899c-2.794-2.447-3.773-6.679-3.773-10.239   c0-2.621,0.874-5.486,2.168-7.758c2.2-3.844,5.903-5.38,10.203-5.38c4.264,0,8.981,1.955,9.191,6.813h-3.668V40.465L68.652,40.465z    M79.451,51.264c-0.246,3.076,1.013,6.258,4.404,6.258c2.585,0,3.879-1.015,4.263-3.564h3.497   c-0.525,3.982-3.602,5.979-7.795,5.979c-5.626,0-7.863-3.984-7.863-9.155c0-5.139,2.585-9.438,8.145-9.438   c5.238,0.105,7.722,3.427,7.722,8.284v1.644H79.451V51.264z M88.327,48.959c0.072-2.936-1.255-5.208-4.472-5.208   c-2.763,0-4.404,2.342-4.404,5.208H88.327z M111.637,50.637c0,5.452-2.969,9.297-8.734,9.297c-5.765,0-8.736-3.845-8.736-9.297   c0-5.452,2.972-9.298,8.736-9.298C108.668,41.339,111.637,45.185,111.637,50.637z M102.902,57.52c3.945,0,5.24-3.146,5.24-6.883   c0-3.742-1.295-6.887-5.24-6.887c-3.952,0-5.243,3.145-5.243,6.887C97.658,54.374,98.95,57.52,102.902,57.52z"/>
	<path fill="#A7A7C0" d="M115.343,39.068h-7.723v-4.894h22.608v4.894h-7.897v20.34h-6.988V39.068L115.343,39.068z"/>
	<path fill="#A7A7C0" d="M133.934,45.148h0.07c0.771-2.901,2.938-3.878,5.873-3.81v5.626c-0.488-0.032-0.943-0.032-1.4-0.032   c-3.459,0.032-4.646,2.096-4.543,5.452v7.024h-6.639V46.373c0.01-1.505-0.063-3.011-0.211-4.509h6.746L133.934,45.148   L133.934,45.148z M154.865,57.484c-1.501,1.748-3.248,2.447-5.484,2.447c-3.775,0-6.568-2.447-6.568-6.326V41.864h6.64v10.311   c0.069,1.712,0.485,3.562,2.551,3.562c3.283,0,2.863-3.6,2.863-3.809V41.864h6.642v13.032c0,1.574,0.035,2.623,0.209,4.512h-6.74   L154.865,57.484z M175.382,47.28c0-0.594-0.104-1.119-0.42-1.467c-0.353-0.386-0.907-0.628-1.815-0.628   c-0.979,0-1.572,0.559-1.572,1.572c0,1.292,2.691,1.224,6.849,2.515c2.099,0.664,3.53,1.959,3.53,4.824   c0,4.646-4.37,5.836-8.391,5.836c-4.295,0-8.488-0.873-8.457-6.223h6.291c-0.104,0.525,0.07,1.119,0.455,1.572   c0.383,0.453,0.943,0.806,1.573,0.806c1.291,0,2.234-0.489,2.234-1.608c0-3.109-10.38-1.26-10.38-7.621   c0-4.333,4.611-5.521,8.111-5.521c4.156,0,8,1.083,8.279,5.943H175.382L175.382,47.28L175.382,47.28z M187.124,41.864v-2.655   l6.64-2.519v5.173h3.844v4.194h-3.844v6.952c0,0.456-0.279,2.728,1.258,2.728c0.875,0,1.783,0,2.553-0.104v3.95   c-1.504,0.278-2.588,0.351-3.564,0.351c-4.506,0-7.232-0.631-6.886-6.016v-7.861H183.7v-4.194L187.124,41.864L187.124,41.864   L187.124,41.864z"/>
	<path fill="#A7A7C0" d="M28.999,41.811c-6.865,0-12.429,5.566-12.429,12.431c0,0.779,0.074,1.543,0.21,2.283   c0.31,1.344,1.024,1.762,1.688,2.045c0.326,0.138,0.609,0.191,0.768,0.213c1.315,0.099,2.69-0.225,3.985-1.031   c1.761-1.094,3.065-2.876,3.766-4.906c-2.12,0.244-4.229,0.566-6.324,0.969l0.039-3.896l13.96-0.932l-0.097,13.166l-4.219,0.285   c0-0.008,0.004-0.014,0.004-0.021l0.063-0.412c0.265-1.778,0.459-3.567,0.584-5.362c-0.543,0.711-1.152,1.369-1.817,1.969   c-1.801,1.619-3.964,2.783-6.308,3.396c-0.796,0.204-2.195,0.3-3.296,0.341c2.359,2.748,5.8,4.327,9.421,4.323   c6.864,0,12.428-5.563,12.428-12.427C41.427,47.377,35.863,41.811,28.999,41.811L28.999,41.811z"/>
</g>
</svg>