<svg version="1.1" id="Layer_1" xmlns="http://www.w3.org/2000/svg" xmlns:xlink="http://www.w3.org/1999/xlink" x="0px" y="0px" width="200px" height="100px" viewBox="0 0 200 100" enable-background="new 0 0 200 100" xml:space="preserve">
<path fill="#A7A7C0" d="M101.654,52.367l-5.23-3.078l-0.37,0.604c-1.166,1.871-2.802,2.802-4.805,2.802  c-3.457,0-6.025-2.615-6.025-6.021c0-3.453,2.615-6.021,6.025-6.021c2.05,0,3.546,0.884,4.805,2.802l0.37,0.608l5.23-3.083  l-0.467-0.655c-2.52-3.64-5.743-5.366-9.986-5.366c-7.982,0-12.277,6.068-12.277,11.762c0,5.694,4.295,11.763,12.277,11.763  c4.057,0,7.888-2.055,9.986-5.414L101.654,52.367z"/>
<path fill="#A7A7C0" d="M101.374,58.391h7.187l2.151-5.32h10.779l2.147,5.32h7.236L117.99,27.258h-6.441l1.727,4.154L101.374,58.391   M116.172,39.534l2.896,7.327h-5.885L116.172,39.534z"/>
<path fill="#A7A7C0" d="M133.861,58.436h6.302V44.433h4.104v-5.881h-4.104v-2.751c0-1.216,0.791-2.475,2.288-2.475  c0.791,0,1.306,0.136,1.77,0.324l0.701,0.28l2.615-5.737l-0.697-0.233c-1.17-0.468-2.803-0.655-3.968-0.655  c-2.849,0-5.229,0.936-6.815,2.705c-1.399,1.543-2.195,3.687-2.195,6.072V38.6h-2.797v5.881h2.797V58.436L133.861,58.436z"/>
<polygon fill="#A7A7C0" points="49.188,27.07 49.188,58.343 56.052,58.391 56.052,40.466 62.728,45.411 69.353,40.466   69.353,58.391 76.217,58.391 76.217,27.07 62.728,37.246 "/>
<path fill="#A7A7C0" d="M158.508,34.959c-7.935,0-12.229,6.021-12.229,11.715c0,5.693,4.295,11.715,12.229,11.715  c3.641-0.047,7.047-1.68,9.704-4.716l-5.128-2.798c-1.311,1.355-2.943,2.055-4.716,2.055c-2.615,0-4.903-1.729-5.511-4.016h17.18  v-1.54C170.083,38.833,163.314,35.005,158.508,34.959z M152.997,43.829c0.842-2.151,2.614-3.363,4.903-3.363  c2.33,0,4.154,1.212,5.09,3.41L152.997,43.829z"/>
<path fill="#A7A7C0" d="M184.316,35.005c-7.937,0-12.228,6.021-12.228,11.715c0,5.694,4.291,11.715,12.228,11.715  c3.644-0.047,7.051-1.68,9.711-4.717l-5.137-2.798c-1.306,1.353-2.938,2.054-4.716,2.054c-2.61,0-4.897-1.726-5.503-4.014h17.176  v-1.54C195.896,38.879,189.126,35.005,184.316,35.005z M178.813,43.829c0.838-2.151,2.612-3.41,4.899-3.363  c2.335,0,4.155,1.212,5.086,3.41L178.813,43.829z"/>
<polygon fill="#A7A7C0" points="8.955,53.768 8.955,37.897 18.944,42.52 18.944,34.865 2,27.024 2,58.201 18.944,66.044   18.944,58.391 "/>
<polygon fill="#9595A5" points="28.977,53.768 28.977,37.897 18.944,42.52 18.944,34.865 35.934,27.024 35.934,58.201   18.944,66.044 18.944,58.391 "/>
<path fill="#A7A7C0" d="M54.84,78.413h-2.011V67.82h-3.641v-1.729h9.292v1.729h-3.64V78.413z"/>
<path fill="#A7A7C0" d="M66.883,73.745c0,1.543-0.375,2.708-1.169,3.546c-0.795,0.843-1.867,1.264-3.266,1.264  c-0.889,0-1.637-0.188-2.334-0.609c-0.655-0.373-1.165-0.978-1.54-1.678c-0.374-0.746-0.561-1.586-0.561-2.569  c0-1.492,0.374-2.704,1.169-3.546c0.791-0.842,1.863-1.26,3.266-1.26c1.353,0,2.424,0.418,3.219,1.307  C66.508,71.087,66.883,72.251,66.883,73.745z M60.113,73.745c0,2.151,0.791,3.223,2.381,3.223c1.586,0,2.377-1.071,2.377-3.223  c0-2.144-0.791-3.173-2.377-3.173c-0.842,0-1.45,0.281-1.824,0.842C60.3,71.93,60.113,72.721,60.113,73.745z"/>
<path fill="#A7A7C0" d="M76.914,69.079v1.071l-1.586,0.281c0.14,0.188,0.28,0.422,0.374,0.748c0.093,0.28,0.141,0.607,0.141,0.936  c0,0.979-0.328,1.724-0.979,2.283c-0.655,0.563-1.59,0.843-2.756,0.843c-0.28,0-0.561,0-0.795-0.046  c-0.417,0.279-0.651,0.56-0.651,0.934c0,0.23,0.094,0.371,0.281,0.465s0.557,0.141,1.119,0.141h1.633  c1.029,0,1.82,0.233,2.334,0.651c0.51,0.421,0.791,1.074,0.791,1.916c0,1.072-0.421,1.867-1.306,2.425  c-0.885,0.562-2.147,0.842-3.78,0.842c-1.259,0-2.241-0.233-2.896-0.654c-0.651-0.469-0.978-1.071-0.978-1.909  c0-0.562,0.187-1.075,0.557-1.45c0.375-0.373,0.889-0.654,1.543-0.793c-0.28-0.096-0.467-0.281-0.654-0.56  c-0.187-0.233-0.281-0.515-0.281-0.794c0-0.324,0.094-0.652,0.281-0.887c0.187-0.233,0.468-0.467,0.889-0.701  c-0.468-0.187-0.889-0.561-1.169-1.028c-0.281-0.468-0.468-1.024-0.468-1.629c0-1.028,0.328-1.776,0.982-2.339  c0.655-0.557,1.543-0.838,2.709-0.838c0.277,0,0.557,0,0.838,0.048c0.28,0.046,0.514,0.093,0.654,0.093h3.172L76.914,69.079  L76.914,69.079z M69.587,79.863c0,0.416,0.187,0.744,0.561,0.979c0.375,0.233,0.936,0.327,1.633,0.327  c1.072,0,1.867-0.14,2.428-0.468c0.515-0.327,0.795-0.697,0.795-1.212c0-0.421-0.14-0.702-0.421-0.888  c-0.28-0.188-0.842-0.281-1.637-0.281h-1.493c-0.558,0-1.025,0.14-1.353,0.421C69.728,79.068,69.587,79.396,69.587,79.863z   M70.429,72.115c0,0.604,0.14,1.025,0.467,1.349c0.281,0.327,0.745,0.468,1.306,0.468c1.166,0,1.727-0.607,1.727-1.815  c0-0.608-0.14-1.076-0.421-1.402c-0.281-0.327-0.702-0.515-1.306-0.515c-0.561,0-1.025,0.141-1.306,0.467  C70.569,70.993,70.429,71.507,70.429,72.115z"/>
<path fill="#A7A7C0" d="M82.378,78.602c-1.45,0-2.568-0.422-3.406-1.264c-0.842-0.838-1.216-2.003-1.216-3.499  c0-1.539,0.374-2.705,1.123-3.594c0.744-0.89,1.816-1.306,3.125-1.306c1.216,0,2.194,0.369,2.938,1.117  c0.702,0.75,1.076,1.777,1.076,3.084v1.07H79.81c0.046,0.891,0.28,1.591,0.744,2.102c0.468,0.469,1.123,0.748,1.964,0.748  c0.562,0,1.071-0.045,1.54-0.141c0.463-0.094,0.978-0.279,1.54-0.514v1.632c-0.468,0.233-0.982,0.374-1.446,0.468  C83.59,78.555,83.033,78.602,82.378,78.602z M82.004,70.432c-0.608,0-1.122,0.188-1.496,0.607c-0.371,0.422-0.604,0.982-0.698,1.729  h4.248c0-0.791-0.187-1.354-0.562-1.729C83.126,70.619,82.659,70.432,82.004,70.432z"/>
<path fill="#A7A7C0" d="M91.666,76.967c0.467,0,0.978-0.093,1.446-0.232v1.494c-0.234,0.092-0.514,0.186-0.838,0.231  c-0.328,0.047-0.702,0.095-1.072,0.095c-1.871,0-2.806-0.982-2.806-2.984v-4.95h-1.255v-0.89l1.349-0.744l0.655-1.961h1.216v2.054  h2.658v1.493H90.36v4.996c0,0.468,0.141,0.839,0.374,1.072C90.968,76.874,91.292,76.967,91.666,76.967z"/>
<path fill="#A7A7C0" d="M102.964,78.413h-2.011v-5.74c0-0.696-0.141-1.259-0.421-1.634c-0.277-0.374-0.744-0.514-1.395-0.514  c-0.842,0-1.45,0.233-1.824,0.748c-0.375,0.515-0.608,1.353-0.608,2.518v4.622h-1.956V65.296h1.956v3.315  c0,0.515-0.046,1.119-0.094,1.728h0.141c0.28-0.468,0.655-0.795,1.123-1.028c0.468-0.23,1.029-0.371,1.68-0.371  c2.241,0,3.41,1.119,3.41,3.406L102.964,78.413L102.964,78.413z"/>
<path fill="#A7A7C0" d="M109.729,78.602c-1.449,0-2.563-0.422-3.405-1.264c-0.843-0.838-1.218-2.003-1.218-3.499  c0-1.539,0.375-2.705,1.123-3.594c0.748-0.89,1.82-1.306,3.127-1.306c1.215,0,2.193,0.369,2.938,1.117  c0.702,0.75,1.076,1.777,1.076,3.084v1.07h-6.205c0.047,0.891,0.275,1.591,0.745,2.102c0.463,0.469,1.116,0.748,1.96,0.748  c0.561,0,1.074-0.045,1.54-0.141c0.467-0.094,0.978-0.279,1.539-0.514v1.632c-0.47,0.233-0.979,0.374-1.446,0.468  C110.945,78.555,110.385,78.602,109.729,78.602z M109.355,70.432c-0.607,0-1.119,0.188-1.494,0.607  c-0.373,0.422-0.606,0.982-0.696,1.729h4.245c0-0.791-0.184-1.354-0.559-1.729C110.523,70.619,110.01,70.432,109.355,70.432z"/>
<path fill="#A7A7C0" d="M120.232,68.939c0.416,0,0.744,0.047,0.979,0.094l-0.188,1.865c-0.28-0.045-0.562-0.092-0.885-0.092  c-0.795,0-1.445,0.279-1.914,0.795c-0.514,0.514-0.748,1.164-0.748,2.002v4.855h-1.961v-9.334h1.541l0.279,1.634h0.094  c0.327-0.562,0.702-0.981,1.217-1.311C119.114,69.079,119.625,68.939,120.232,68.939z"/>
<path fill="#A7A7C0" d="M127.372,66.605c0-0.375,0.095-0.608,0.28-0.842c0.188-0.188,0.468-0.281,0.839-0.281  c0.327,0,0.608,0.093,0.795,0.281c0.188,0.186,0.28,0.467,0.28,0.842c0,0.326-0.094,0.606-0.28,0.793  c-0.187,0.188-0.468,0.281-0.795,0.281c-0.371,0-0.65-0.094-0.839-0.281C127.467,67.213,127.372,66.979,127.372,66.605z   M129.475,78.413h-1.961v-9.334h1.961V78.413z"/>
<path fill="#A7A7C0" d="M138.438,75.755c0,0.933-0.328,1.583-0.981,2.099c-0.654,0.467-1.633,0.748-2.845,0.748  c-1.264,0-2.245-0.188-2.99-0.563v-1.727c1.072,0.515,2.102,0.748,3.083,0.748c1.212,0,1.815-0.373,1.815-1.117  c0-0.234-0.047-0.422-0.188-0.608c-0.137-0.14-0.37-0.328-0.65-0.468c-0.326-0.188-0.744-0.374-1.306-0.563  c-1.075-0.42-1.823-0.842-2.192-1.259c-0.375-0.421-0.563-0.933-0.563-1.633c0-0.795,0.328-1.402,0.979-1.87  c0.654-0.418,1.543-0.65,2.615-0.65c1.07,0,2.146,0.232,3.129,0.65l-0.654,1.495c-1.029-0.42-1.866-0.606-2.519-0.606  c-1.028,0-1.59,0.28-1.59,0.889c0,0.281,0.142,0.561,0.421,0.748c0.28,0.183,0.889,0.465,1.773,0.839  c0.791,0.28,1.305,0.557,1.68,0.838c0.327,0.233,0.607,0.515,0.795,0.841C138.438,74.913,138.438,75.335,138.438,75.755z"/>
<path fill="#A7A7C0" d="M149.872,78.602c-1.17,0-2.101-0.422-2.752-1.264h-0.14c0.093,0.796,0.14,1.264,0.14,1.449v3.828h-1.964  V69.079h1.59c0.047,0.188,0.14,0.604,0.281,1.26h0.093c0.604-0.937,1.536-1.399,2.798-1.399c1.17,0,2.055,0.418,2.705,1.26  c0.654,0.841,0.982,2.007,0.982,3.547c0,1.543-0.328,2.708-0.982,3.546C151.926,78.18,151.041,78.602,149.872,78.602z   M149.357,70.525c-0.795,0-1.354,0.233-1.728,0.701c-0.375,0.469-0.558,1.213-0.558,2.189v0.279c0,1.123,0.183,1.966,0.558,2.479  c0.374,0.511,0.933,0.744,1.772,0.744c0.701,0,1.217-0.28,1.591-0.838c0.37-0.562,0.557-1.354,0.557-2.386  c0-1.024-0.187-1.816-0.557-2.377C150.62,70.76,150.105,70.525,149.357,70.525L149.357,70.525z"/>
<path fill="#A7A7C0" d="M164.109,73.745c0,1.543-0.375,2.708-1.166,3.546c-0.795,0.843-1.87,1.264-3.271,1.264  c-0.884,0-1.633-0.188-2.334-0.609c-0.654-0.373-1.169-0.979-1.539-1.678c-0.375-0.746-0.563-1.586-0.563-2.569  c0-1.492,0.375-2.704,1.166-3.546c0.796-0.842,1.871-1.26,3.27-1.26c1.354,0,2.43,0.418,3.225,1.307  C163.688,71.087,164.109,72.251,164.109,73.745z M157.292,73.745c0,2.151,0.795,3.222,2.381,3.222c1.587,0,2.382-1.07,2.382-3.222  c0-2.144-0.795-3.173-2.382-3.173c-0.837,0-1.444,0.281-1.819,0.842C157.479,71.977,157.292,72.721,157.292,73.745z"/>
<path fill="#A7A7C0" d="M173.864,78.413l-1.216-4.343c-0.143-0.467-0.422-1.537-0.791-3.217h-0.096  c-0.326,1.539-0.607,2.609-0.791,3.217l-1.263,4.343h-2.194l-2.613-9.334h2.011l1.165,4.571c0.277,1.123,0.464,2.104,0.557,2.942  h0.047c0.049-0.417,0.141-0.885,0.281-1.397c0.094-0.516,0.234-0.937,0.28-1.217l1.403-4.899h2.189l1.355,4.899  c0.095,0.28,0.188,0.701,0.328,1.263s0.188,1.024,0.232,1.306h0.047c0.094-0.697,0.281-1.68,0.604-2.896l1.213-4.571h2.011  l-2.615,9.334H173.864z"/>
<path fill="#A7A7C0" d="M184.223,78.602c-1.441,0-2.563-0.422-3.404-1.264c-0.84-0.838-1.213-2.003-1.213-3.499  c0-1.539,0.373-2.705,1.117-3.594c0.748-0.89,1.824-1.306,3.131-1.306c1.211,0,2.193,0.369,2.941,1.117  c0.698,0.75,1.072,1.777,1.072,3.084v1.07h-6.209c0.047,0.891,0.279,1.591,0.749,2.102c0.468,0.469,1.116,0.748,1.956,0.748  c0.561,0,1.074-0.045,1.544-0.141c0.467-0.094,0.981-0.279,1.538-0.514v1.632c-0.465,0.233-0.979,0.374-1.445,0.468  C185.393,78.555,184.831,78.602,184.223,78.602z M183.854,70.432c-0.607,0-1.119,0.188-1.494,0.607  c-0.373,0.422-0.606,0.982-0.7,1.729h4.249c0-0.791-0.188-1.354-0.563-1.729C184.971,70.619,184.457,70.432,183.854,70.432  L183.854,70.432z"/>
<path fill="#A7A7C0" d="M194.775,68.939c0.418,0,0.744,0.047,0.979,0.094l-0.188,1.865c-0.278-0.045-0.557-0.092-0.883-0.092  c-0.797,0-1.451,0.279-1.918,0.795c-0.516,0.514-0.744,1.164-0.744,2.002v4.855h-1.961v-9.334h1.539l0.28,1.634h0.095  c0.322-0.562,0.696-0.981,1.211-1.311C193.654,69.079,194.169,68.939,194.775,68.939z"/>
<path fill="#A7A7C0" d="M195.755,77.386c0-0.419,0.095-0.745,0.324-0.933c0.231-0.232,0.514-0.324,0.935-0.324  c0.422,0,0.702,0.092,0.936,0.324c0.234,0.234,0.328,0.563,0.328,0.933c0,0.421-0.094,0.7-0.328,0.935  c-0.232,0.234-0.514,0.328-0.936,0.328c-0.421,0-0.701-0.094-0.935-0.328C195.85,78.086,195.755,77.76,195.755,77.386z"/>
</svg>