<svg version="1.1" id="Layer_1" xmlns="http://www.w3.org/2000/svg" xmlns:xlink="http://www.w3.org/1999/xlink" x="0px" y="0px" width="200px" height="100px" viewBox="0 0 200 100" enable-background="new 0 0 200 100" xml:space="preserve">
<g>
	<g>
		<g>
			<path fill="#A7A7C0" d="M156.686,37.54c-5.5,0-9.945,4.446-9.945,9.945c0,5.499,4.445,9.944,9.945,9.944     c5.498,0,9.944-4.445,9.944-9.944C166.63,41.986,162.184,37.54,156.686,37.54z M156.686,52.632c-2.811,0-5.148-2.222-5.148-5.147     s2.338-5.148,5.148-5.148c2.809,0,5.148,2.224,5.148,5.148S159.494,52.632,156.686,52.632z"/>
			<path fill="#A7A7C0" d="M111.058,37.54c-5.5,0-9.946,4.446-9.946,9.945c0,5.499,4.446,9.944,9.946,9.944     c5.497,0,9.943-4.445,9.943-9.944C121.001,41.986,116.555,37.54,111.058,37.54z M111.058,52.632c-2.81,0-5.148-2.222-5.148-5.147     s2.339-5.148,5.148-5.148c2.807,0,5.146,2.224,5.146,5.148S113.864,52.632,111.058,52.632z"/>
			<path fill="#A7A7C0" d="M146.153,52.866c-0.583,0.234-1.636,0.352-1.988,0.352c-1.636,0-2.104-0.586-2.104-2.224v-9.125h4.093     v-3.86h-4.093v-5.382h-4.563l-0.937,5.382h-3.156l0,0h-0.235c-2.575,0-4.565,1.638-5.85,4.094l-1.639-4.094h-3.276v19.07h5.616     v-8.307c0-4.211,2.459-6.903,5.384-6.903h3.04v9.477c0,4.444,2.34,6.083,5.966,6.083c1.874,0,3.394-0.351,4.33-0.7     L146.153,52.866z"/>
			<path fill="#A7A7C0" d="M173.415,44.092v12.986h-5.5v-19.07h3.276l1.054,2.925"/>
			<path fill="#A7A7C0" d="M172.361,40.933c1.639-1.872,3.862-3.393,6.552-3.393c4.563,0,6.435,3.627,6.435,7.02v12.518h-5.614     V44.677c0-1.638-1.403-2.574-2.809-2.574c-1.521,0-2.575,0.936-3.51,1.873"/>
			<path fill="#A7A7C0" d="M79.468,31.105h6.2l8.542,16.262V31.105h5.146v25.973h-5.615l-9.126-17.9v17.9h-5.147V31.105     L79.468,31.105z"/>
		</g>
		<g>
			<g>
				<g>
					<path fill="#A7A7C0" d="M186.87,38.008v0.351h-0.585v1.872h-0.471v-1.755h-0.583v-0.351h1.639V38.008z"/>
					<path fill="#A7A7C0" d="M187.104,40.231v-2.223h0.586l0.351,1.404l0,0l0.35-1.404h0.585v2.223h-0.35v-1.755l0,0l-0.469,1.755       h-0.352l-0.469-1.755l0,0v1.755H187.104z"/>
				</g>
			</g>
		</g>
	</g>
	<g>
		<path fill="#A7A7C0" d="M80.988,76.5l-0.351,1.169h-1.054V63.396h1.755v5.147c0.586-0.702,1.639-1.287,2.809-1.287    c2.69,0,3.86,2.692,3.86,5.149c0,3.274-1.638,5.497-4.212,5.497C82.627,77.902,81.689,77.317,80.988,76.5z M86.137,72.405    c0-1.639-0.586-3.628-2.457-3.628c-0.82,0-1.639,0.353-2.341,1.171v5.499c0.702,0.7,1.288,1.053,2.224,1.053    C85.2,76.5,86.137,74.978,86.137,72.405z"/>
		<path fill="#A7A7C0" d="M89.296,67.49h1.871c0,0,2.574,8.542,2.574,8.657l2.34-8.657h1.754l-3.392,10.997    c-0.586,1.873-1.639,2.925-3.628,2.925c-0.35,0-0.818-0.115-1.286-0.232l0.234-1.287c0.233,0,0.467,0.116,0.818,0.116    c1.053,0,1.872-0.467,2.223-1.755L89.296,67.49z"/>
		<path fill="#A7A7C0" d="M103.101,76.147l0.818-1.287c0.82,0.702,2.105,1.404,3.979,1.404c1.872,0,2.926-0.935,2.926-2.457    c0-1.753-1.289-2.223-3.16-2.925c-1.988-0.701-3.86-1.638-3.86-4.212c0-2.34,1.872-3.625,4.212-3.625    c1.755,0,2.691,0.232,3.859,0.935l-0.699,1.405c-0.82-0.47-1.872-0.82-3.16-0.82c-1.52,0-2.573,0.585-2.573,1.99    c0,1.52,0.937,1.987,3.041,2.689c1.99,0.703,4.096,1.521,4.096,4.33c0,2.455-1.755,3.978-4.681,3.978    C105.675,77.902,104.154,76.968,103.101,76.147z"/>
		<path fill="#A7A7C0" d="M113.864,67.49h1.874c0,0,2.571,8.54,2.571,8.657l2.34-8.657h1.755l-3.392,10.997    c-0.585,1.873-1.639,2.925-3.629,2.925c-0.35,0-0.816-0.115-1.284-0.232l0.233-1.287c0.234,0,0.467,0.116,0.82,0.116    c1.051,0,1.871-0.467,2.221-1.755L113.864,67.49z"/>
		<path fill="#A7A7C0" d="M135.041,67.256c2.104,0,2.573,1.756,2.573,3.395v7.019h-1.755V70.65c0-0.938-0.117-1.873-1.405-1.873    c-0.816,0-1.753,0.468-2.571,1.404v7.487h-1.874V70.65c0-0.938-0.114-1.873-1.405-1.873c-0.815,0-1.755,0.585-2.571,1.404v7.487    h-1.755V67.49h1.052l0.471,1.64c0.935-1.055,2.104-1.874,3.508-1.874c1.405,0,1.99,0.702,2.342,1.756    C132.468,67.958,133.754,67.256,135.041,67.256z"/>
		<path fill="#A7A7C0" d="M145.921,70.767c0-1.404-0.467-2.106-1.872-2.106c-1.054,0-1.988,0.352-2.925,0.936l-0.702-1.17    c1.054-0.7,2.222-1.17,3.743-1.17c2.575,0,3.511,1.404,3.511,3.627v6.786h-1.052l-0.471-1.169    c-0.699,0.702-1.869,1.402-3.158,1.402c-1.755,0-3.156-1.17-3.156-2.808c0-1.17,0.467-1.872,1.401-2.455    c0.938-0.585,2.575-0.937,4.681-1.288V70.767z M145.921,72.405c-1.988,0.35-3.392,0.817-3.86,1.402    c-0.235,0.353-0.352,0.587-0.352,1.053c0,0.938,0.47,1.522,1.639,1.522c1.051,0,1.987-0.468,2.573-1.053V72.405L145.921,72.405z"/>
		<path fill="#A7A7C0" d="M150.719,67.49h1.052l0.468,1.64c0.936-1.055,2.105-1.874,3.627-1.874c2.224,0,2.809,1.756,2.809,3.395    v7.019h-1.755V70.65c0-0.938-0.233-1.873-1.639-1.873c-0.937,0-1.988,0.585-2.807,1.404v7.487h-1.755V67.49z"/>
		<path fill="#A7A7C0" d="M160.545,68.777V67.49h1.521l0.47-2.925h1.285v2.925h2.225v1.287h-2.225v6.317    c0,0.936,0.235,1.405,1.17,1.405c0.352,0,0.703-0.117,1.172-0.235l0.233,1.288c-0.351,0.234-1.054,0.35-1.637,0.35    c-1.874,0-2.693-0.935-2.693-2.689v-6.436H160.545z"/>
		<path fill="#A7A7C0" d="M172.128,76.383c1.171,0,1.872-0.468,2.807-0.936l0.704,1.053c-0.938,0.817-1.874,1.287-3.627,1.287    c-2.691,0-4.33-1.989-4.33-5.266c0-3.159,1.639-5.266,4.214-5.266c2.689,0,3.977,1.989,3.977,5.384v0.467h-6.318    C169.67,75.33,170.373,76.383,172.128,76.383z M174.116,71.937c-0.116-2.106-0.817-3.276-2.221-3.276    c-1.289,0-2.107,0.936-2.342,3.276H174.116z"/>
		<path fill="#A7A7C0" d="M177.51,72.64c0-2.574,1.17-5.384,4.33-5.384c1.285,0,2.34,0.352,3.158,1.055l-0.818,1.168    c-0.703-0.467-1.405-0.818-2.34-0.818c-2.106,0-2.458,2.223-2.458,3.979c0,1.638,0.352,3.743,2.458,3.743    c1.052,0,1.755-0.353,2.455-0.936l0.82,1.053c-0.702,0.702-1.755,1.402-3.394,1.402C178.68,77.902,177.51,75.213,177.51,72.64z"/>
	</g>
	<g>
		<g>
			<g>
				<path fill="#A7A7C0" d="M40.742,84.338c-16.379,0-29.717-13.338-29.717-29.717s13.338-29.716,29.717-29.716      s29.717,13.337,29.717,29.716S57.121,84.338,40.742,84.338L40.742,84.338z M40.742,34.264c-5.382,0-10.529,2.106-14.391,5.967      c-3.86,3.86-5.966,9.008-5.966,14.39c0,5.382,2.105,10.529,5.966,14.391c3.861,3.861,9.009,5.966,14.391,5.966      s10.53-2.104,14.391-5.966c3.861-3.861,5.966-9.009,5.966-14.391c0-5.381-2.104-10.529-5.966-14.39      C51.272,36.37,46.124,34.264,40.742,34.264L40.742,34.264z"/>
			</g>
		</g>
		<g>
			<rect x="73.15" y="20.225" fill="#A7A7C0" width="2.34" height="2.34"/>
			<rect x="73.15" y="15.662" fill="#A7A7C0" width="2.34" height="2.34"/>
			<rect x="66.599" y="22.565" fill="#A7A7C0" width="2.223" height="2.222"/>
			<rect x="62.386" y="27.011" fill="#A7A7C0" width="2.224" height="2.222"/>
			<rect x="68.821" y="24.787" fill="#A7A7C0" width="2.456" height="2.224"/>
			<rect x="60.164" y="24.905" fill="#A7A7C0" width="2.222" height="2.106"/>
			<rect x="66.599" y="27.011" fill="#A7A7C0" width="2.223" height="2.222"/>
			<rect x="70.81" y="18.002" fill="#A7A7C0" width="2.341" height="2.34"/>
			<rect x="66.599" y="20.225" fill="#A7A7C0" width="4.211" height="2.34"/>
			<rect x="64.491" y="22.565" fill="#A7A7C0" width="2.107" height="4.446"/>
			<path fill="#A7A7C0" d="M64.491,29.116v2.223h-2.223v-2.223h-3.626v1.521h-1.989v1.989h2.224v2.105h-2.224v-2.105h-2.339v3.392     h-2.224v2.106h-1.404v2.223h-1.403c-1.755,2.691-6.317,10.998-7.604,14.273c-4.915-6.786-8.658-9.476-11.7-10.413     c-1.639-0.468-3.51,1.288-0.819,3.978c6.084,6.786,8.073,12.401,9.945,16.848c0.936,2.339,5.381,2.691,6.317,0.352     c1.872-5.031,4.68-10.765,7.839-15.444v-2.457h1.755v-2.223h1.872v-2.574h2.223v-2.457h-2.223v-2.223h2.223v2.223h2.105v-2.223     h1.755v-2.457h1.989v-1.872h1.873v-4.563H64.491z"/>
		</g>
	</g>
</g>
</svg>